<svg width="151" height="182" viewBox="0 0 151 182" fill="none" xmlns="http://www.w3.org/2000/svg">
<path d="M77.3249 170.707L62.2218 85.6149C61.9555 84.1147 60.7519 82.9575 59.2424 82.7505C56.8849 82.4271 54.8955 84.4934 55.308 86.8369L70.2899 171.951C70.7032 174.298 73.2561 175.59 75.3924 174.533C76.815 173.829 77.6023 172.27 77.3249 170.707Z" fill="#F2F6FC"/>
<path d="M67.4856 118.685C95.6697 90.8619 137.534 46.6296 127.405 29.435C117.277 12.2403 76.7239 19.6404 39.2395 41.7204C1.75522 63.8003 8.16474 76.4085 8.16474 76.4085C8.16474 76.4085 9 79.4999 11.5 78.5C15.691 76.8236 3.50091 69.8841 40.9852 47.8042C78.4696 25.7242 108.977 18.9563 121.624 31.6618C127.405 49.3084 94.5857 83.9965 66.4016 111.819L67.4856 118.685Z" fill="#F2F6FC"/>
<path d="M34.6043 166.38C39.6631 176.498 56.8195 172.688 69.2923 162.406L69.2923 156.263C57.3683 163.128 47.399 171.121 41.1083 163.49C34.8177 155.859 52.8449 131.495 65.3177 121.214L61.3431 116.516C48.8703 126.798 29.5455 156.263 34.6043 166.38Z" fill="#F2F6FC"/>
<path d="M121.926 123.151L72.479 154.309C71.6203 154.85 71.0995 155.794 71.0995 156.809C71.0995 159.109 73.6119 160.527 75.5811 159.339L125.617 129.134C127.823 127.802 127.894 124.629 125.75 123.2C124.597 122.431 123.099 122.412 121.926 123.151Z" fill="#F2F6FC"/>
</svg>
